<svg width="133" height="35" viewBox="0 0 133 35" fill="none" xmlns="http://www.w3.org/2000/svg">
<path d="M0.5 1.195H5.81V28.87H21.92V34H0.5V1.195ZM26.1166 17.62C26.1166 15.37 26.5516 13.24 27.4216 11.23C28.2916 9.19 29.4916 7.405 31.0216 5.875C32.5516 4.315 34.3216 3.085 36.3316 2.185C38.3716 1.285 40.5316 0.834998 42.8116 0.834998C45.1216 0.834998 47.2816 1.285 49.2916 2.185C51.3316 3.085 53.1316 4.315 54.6916 5.875C56.2516 7.405 57.4666 9.19 58.3366 11.23C59.2066 13.24 59.6416 15.37 59.6416 17.62C59.6416 19.96 59.2066 22.135 58.3366 24.145C57.4666 26.155 56.2516 27.94 54.6916 29.5C53.1316 31.03 51.3316 32.23 49.2916 33.1C47.2816 33.94 45.1216 34.36 42.8116 34.36C40.5316 34.36 38.3716 33.94 36.3316 33.1C34.3216 32.23 32.5516 31.045 31.0216 29.545C29.4916 28.015 28.2916 26.23 27.4216 24.19C26.5516 22.15 26.1166 19.96 26.1166 17.62ZM31.6066 17.665C31.6066 19.795 32.1016 21.745 33.0916 23.515C34.1116 25.255 35.4766 26.65 37.1866 27.7C38.9266 28.72 40.8616 29.23 42.9916 29.23C45.0916 29.23 46.9816 28.72 48.6616 27.7C50.3416 26.65 51.6766 25.255 52.6666 23.515C53.6566 21.745 54.1516 19.78 54.1516 17.62C54.1516 15.46 53.6416 13.495 52.6216 11.725C51.6316 9.955 50.2816 8.56 48.5716 7.54C46.8616 6.49 44.9566 5.965 42.8566 5.965C40.7566 5.965 38.8516 6.49 37.1416 7.54C35.4316 8.59 34.0816 10 33.0916 11.77C32.1016 13.54 31.6066 15.505 31.6066 17.665ZM92.7377 30.985C92.3177 31.375 91.6877 31.78 90.8477 32.2C90.0377 32.59 89.1077 32.95 88.0577 33.28C87.0377 33.61 85.9877 33.865 84.9077 34.045C83.8277 34.255 82.8077 34.36 81.8477 34.36C78.3377 34.36 75.2927 33.67 72.7127 32.29C70.1327 30.88 68.1377 28.975 66.7277 26.575C65.3177 24.175 64.6127 21.445 64.6127 18.385C64.6127 15.505 65.0627 12.985 65.9627 10.825C66.8627 8.635 68.0927 6.805 69.6527 5.335C71.2127 3.835 72.9977 2.71 75.0077 1.96C77.0477 1.21 79.1927 0.834998 81.4427 0.834998C83.4527 0.834998 85.2977 1.075 86.9777 1.555C88.6577 2.005 90.1127 2.575 91.3427 3.265L89.5877 8.17C89.0177 7.84 88.2827 7.525 87.3827 7.225C86.5127 6.895 85.5977 6.64 84.6377 6.46C83.7077 6.28 82.8677 6.19 82.1177 6.19C79.6277 6.19 77.4827 6.655 75.6827 7.585C73.9127 8.515 72.5327 9.85 71.5427 11.59C70.5827 13.33 70.1027 15.445 70.1027 17.935C70.1027 20.155 70.5977 22.105 71.5877 23.785C72.6077 25.435 74.0027 26.725 75.7727 27.655C77.5727 28.585 79.6427 29.05 81.9827 29.05C83.0027 29.05 83.9777 28.96 84.9077 28.78C85.8677 28.6 86.6777 28.315 87.3377 27.925V22.57H81.2177V17.44H92.7377V30.985ZM98.6264 17.62C98.6264 15.37 99.0614 13.24 99.9314 11.23C100.801 9.19 102.001 7.405 103.531 5.875C105.061 4.315 106.831 3.085 108.841 2.185C110.881 1.285 113.041 0.834998 115.321 0.834998C117.631 0.834998 119.791 1.285 121.801 2.185C123.841 3.085 125.641 4.315 127.201 5.875C128.761 7.405 129.976 9.19 130.846 11.23C131.716 13.24 132.151 15.37 132.151 17.62C132.151 19.96 131.716 22.135 130.846 24.145C129.976 26.155 128.761 27.94 127.201 29.5C125.641 31.03 123.841 32.23 121.801 33.1C119.791 33.94 117.631 34.36 115.321 34.36C113.041 34.36 110.881 33.94 108.841 33.1C106.831 32.23 105.061 31.045 103.531 29.545C102.001 28.015 100.801 26.23 99.9314 24.19C99.0614 22.15 98.6264 19.96 98.6264 17.62ZM104.116 17.665C104.116 19.795 104.611 21.745 105.601 23.515C106.621 25.255 107.986 26.65 109.696 27.7C111.436 28.72 113.371 29.23 115.501 29.23C117.601 29.23 119.491 28.72 121.171 27.7C122.851 26.65 124.186 25.255 125.176 23.515C126.166 21.745 126.661 19.78 126.661 17.62C126.661 15.46 126.151 13.495 125.131 11.725C124.141 9.955 122.791 8.56 121.081 7.54C119.371 6.49 117.466 5.965 115.366 5.965C113.266 5.965 111.361 6.49 109.651 7.54C107.941 8.59 106.591 10 105.601 11.77C104.611 13.54 104.116 15.505 104.116 17.665Z" fill="#233772"/>
</svg>
